<?xml version="1.0" encoding="utf-8"?>
<svg viewBox="0 0 193 32" fill="none" xmlns="http://www.w3.org/2000/svg">
  <mask id="mask0" mask-type="alpha" maskUnits="userSpaceOnUse" x="0" y="0" width="45" height="32">
    <rect width="44.5148" height="31.037" fill="#C4C4C4"/>
  </mask>
  <g mask="url(#mask0)">
    <path d="M38.6993 40.2759V34.4853H23.5231V31.0467H33.0112C39.0746 31.0467 44.0075 26.1138 44.0075 20.0504C44.0075 14.0265 39.1388 9.11851 33.1299 9.05463C31.8343 3.86453 27.1127 0.0947266 21.6523 0.0947266C15.1297 0.0947266 9.82311 5.40129 9.82311 11.9239C9.82311 11.9731 9.8234 12.0223 9.82406 12.0716C9.77585 12.0708 9.72773 12.0704 9.67951 12.0704C4.44774 12.0704 0.191406 16.3268 0.191406 21.5585C0.191406 26.7903 4.44774 31.0467 9.67951 31.0467H20.6757V34.4853H5.49958V40.2759C3.85026 40.8929 2.67265 42.4844 2.67265 44.3463C2.67265 46.7419 4.62162 48.6908 7.01717 48.6908C9.41271 48.6908 11.3617 46.7419 11.3617 44.3463C11.3617 42.4145 10.094 40.7739 8.34701 40.2108V37.3327H20.6757V40.2426C18.9775 40.8335 17.7549 42.4494 17.7549 44.3462C17.7549 46.7419 19.7039 48.6908 22.0994 48.6908C24.495 48.6908 26.4439 46.7419 26.4439 44.3463C26.4439 42.4494 25.2213 40.8335 23.5231 40.2427V37.3328H35.8518V40.2109C34.1049 40.774 32.8372 42.4146 32.8372 44.3464C32.8372 46.742 34.7861 48.6909 37.1817 48.6909C39.5772 48.6909 41.5262 46.742 41.5262 44.3464C41.5262 42.4845 40.3486 40.8929 38.6993 40.2759ZM8.51425 44.3463C8.51425 45.1718 7.84273 45.8434 7.01717 45.8434C6.1917 45.8434 5.52008 45.1718 5.52008 44.3463C5.52008 43.5209 6.1917 42.8492 7.01717 42.8492C7.84263 42.8492 8.51425 43.5209 8.51425 44.3463ZM23.5965 44.3463C23.5965 45.1718 22.9249 45.8434 22.0994 45.8434C21.274 45.8434 20.6023 45.1718 20.6023 44.3463C20.6023 43.5209 21.274 42.8492 22.0994 42.8492C22.9249 42.8492 23.5965 43.5209 23.5965 44.3463ZM37.1817 45.8434C36.3562 45.8434 35.6846 45.1718 35.6846 44.3463C35.6846 43.5209 36.3562 42.8492 37.1817 42.8492C38.0071 42.8492 38.6788 43.5209 38.6788 44.3463C38.6788 45.1718 38.0071 45.8434 37.1817 45.8434Z" fill="#bc4824"/>
  </g>
  <path d="M 51.112 9.358 L 61.252 9.358 L 61.252 12.348 L 54.872 12.348 L 54.872 15.758 L 59.802 15.758 L 59.802 18.618 L 54.872 18.618 L 54.872 24.908 L 51.112 24.908 L 51.112 9.358 ZM 62.84 9.178 C 62.84 8.605 63.043 8.131 63.45 7.758 C 63.863 7.385 64.407 7.198 65.08 7.198 C 65.753 7.198 66.297 7.385 66.71 7.758 C 67.117 8.131 67.32 8.605 67.32 9.178 C 67.32 9.738 67.117 10.205 66.71 10.578 C 66.297 10.951 65.753 11.138 65.08 11.138 C 64.407 11.138 63.863 10.951 63.45 10.578 C 63.043 10.205 62.84 9.738 62.84 9.178 Z M 63.19 12.628 L 66.95 12.628 L 66.95 24.908 L 63.19 24.908 L 63.19 12.628 ZM 73.308 14.938 C 73.775 14.191 74.381 13.598 75.128 13.158 C 75.868 12.718 76.668 12.498 77.528 12.498 L 77.528 16.528 L 76.458 16.528 C 75.458 16.528 74.681 16.741 74.128 17.168 C 73.581 17.588 73.308 18.305 73.308 19.318 L 73.308 24.908 L 69.548 24.908 L 69.548 12.628 L 73.308 12.628 L 73.308 14.938 ZM 90.778 18.438 C 90.778 18.745 90.741 19.081 90.668 19.448 L 82.148 19.448 C 82.195 20.375 82.431 21.041 82.858 21.448 C 83.285 21.848 83.828 22.048 84.488 22.048 C 85.041 22.048 85.501 21.908 85.868 21.628 C 86.235 21.348 86.478 20.988 86.598 20.548 L 90.578 20.548 C 90.418 21.415 90.065 22.191 89.518 22.878 C 88.978 23.558 88.291 24.091 87.458 24.478 C 86.618 24.865 85.685 25.058 84.658 25.058 C 83.458 25.058 82.391 24.808 81.458 24.308 C 80.525 23.801 79.795 23.071 79.268 22.118 C 78.741 21.165 78.478 20.048 78.478 18.768 C 78.478 17.481 78.738 16.365 79.258 15.418 C 79.778 14.471 80.508 13.745 81.448 13.238 C 82.388 12.731 83.458 12.478 84.658 12.478 C 85.878 12.478 86.948 12.728 87.868 13.228 C 88.795 13.728 89.511 14.428 90.018 15.328 C 90.525 16.228 90.778 17.265 90.778 18.438 Z M 86.968 17.868 C 86.981 17.061 86.765 16.458 86.318 16.058 C 85.871 15.651 85.318 15.448 84.658 15.448 C 83.971 15.448 83.401 15.655 82.948 16.068 C 82.488 16.475 82.231 17.075 82.178 17.868 L 86.968 17.868 ZM 105.646 9.468 L 110.226 9.468 L 110.226 24.908 L 106.466 24.908 L 106.466 15.248 L 103.116 24.908 L 99.866 24.908 L 96.496 15.228 L 96.496 24.908 L 92.736 24.908 L 92.736 9.468 L 97.336 9.468 L 101.536 20.218 L 105.646 9.468 ZM 118.562 12.478 C 119.782 12.478 120.872 12.731 121.832 13.238 C 122.792 13.745 123.545 14.475 124.092 15.428 C 124.645 16.381 124.922 17.495 124.922 18.768 C 124.922 20.048 124.645 21.165 124.092 22.118 C 123.545 23.071 122.792 23.801 121.832 24.308 C 120.872 24.808 119.782 25.058 118.562 25.058 C 117.342 25.058 116.249 24.808 115.282 24.308 C 114.315 23.801 113.555 23.071 113.002 22.118 C 112.455 21.165 112.182 20.048 112.182 18.768 C 112.182 17.495 112.455 16.381 113.002 15.428 C 113.555 14.475 114.315 13.745 115.282 13.238 C 116.249 12.731 117.342 12.478 118.562 12.478 Z M 118.562 15.738 C 117.842 15.738 117.235 15.998 116.742 16.518 C 116.255 17.038 116.012 17.788 116.012 18.768 C 116.012 19.755 116.255 20.505 116.742 21.018 C 117.235 21.531 117.842 21.788 118.562 21.788 C 119.282 21.788 119.882 21.531 120.362 21.018 C 120.849 20.505 121.092 19.755 121.092 18.768 C 121.092 17.788 120.849 17.038 120.362 16.518 C 119.882 15.998 119.282 15.738 118.562 15.738 ZM 134.67 12.498 C 136.077 12.498 137.193 12.968 138.02 13.908 C 138.847 14.848 139.26 16.138 139.26 17.778 L 139.26 24.908 L 135.5 24.908 L 135.5 18.218 C 135.5 17.398 135.283 16.758 134.85 16.298 C 134.417 15.831 133.843 15.598 133.13 15.598 C 132.363 15.598 131.757 15.841 131.31 16.328 C 130.863 16.815 130.64 17.505 130.64 18.398 L 130.64 24.908 L 126.88 24.908 L 126.88 12.628 L 130.64 12.628 L 130.64 14.878 C 130.993 14.145 131.517 13.565 132.21 13.138 C 132.91 12.711 133.73 12.498 134.67 12.498 ZM 141.402 9.178 C 141.402 8.605 141.605 8.131 142.012 7.758 C 142.425 7.385 142.969 7.198 143.642 7.198 C 144.315 7.198 144.859 7.385 145.272 7.758 C 145.679 8.131 145.882 8.605 145.882 9.178 C 145.882 9.738 145.679 10.205 145.272 10.578 C 144.859 10.951 144.315 11.138 143.642 11.138 C 142.969 11.138 142.425 10.951 142.012 10.578 C 141.605 10.205 141.402 9.738 141.402 9.178 Z M 141.752 12.628 L 145.512 12.628 L 145.512 24.908 L 141.752 24.908 L 141.752 12.628 ZM 153.87 21.678 L 155.06 21.678 L 155.06 24.908 L 153.37 24.908 C 151.93 24.908 150.81 24.551 150.01 23.838 C 149.21 23.131 148.81 21.955 148.81 20.308 L 148.81 15.798 L 147.16 15.798 L 147.16 12.628 L 148.81 12.628 L 148.81 9.618 L 152.57 9.618 L 152.57 12.628 L 155.04 12.628 L 155.04 15.798 L 152.57 15.798 L 152.57 20.378 C 152.57 20.858 152.67 21.195 152.87 21.388 C 153.07 21.581 153.403 21.678 153.87 21.678 ZM 162.914 12.478 C 164.134 12.478 165.224 12.731 166.184 13.238 C 167.144 13.745 167.897 14.475 168.444 15.428 C 168.997 16.381 169.274 17.495 169.274 18.768 C 169.274 20.048 168.997 21.165 168.444 22.118 C 167.897 23.071 167.144 23.801 166.184 24.308 C 165.224 24.808 164.134 25.058 162.914 25.058 C 161.694 25.058 160.601 24.808 159.634 24.308 C 158.667 23.801 157.907 23.071 157.354 22.118 C 156.807 21.165 156.534 20.048 156.534 18.768 C 156.534 17.495 156.807 16.381 157.354 15.428 C 157.907 14.475 158.667 13.745 159.634 13.238 C 160.601 12.731 161.694 12.478 162.914 12.478 Z M 162.914 15.738 C 162.194 15.738 161.587 15.998 161.094 16.518 C 160.607 17.038 160.364 17.788 160.364 18.768 C 160.364 19.755 160.607 20.505 161.094 21.018 C 161.587 21.531 162.194 21.788 162.914 21.788 C 163.634 21.788 164.234 21.531 164.714 21.018 C 165.201 20.505 165.444 19.755 165.444 18.768 C 165.444 17.788 165.201 17.038 164.714 16.518 C 164.234 15.998 163.634 15.738 162.914 15.738 ZM 174.992 14.938 C 175.459 14.191 176.065 13.598 176.812 13.158 C 177.552 12.718 178.352 12.498 179.212 12.498 L 179.212 16.528 L 178.142 16.528 C 177.142 16.528 176.365 16.741 175.812 17.168 C 175.265 17.588 174.992 18.305 174.992 19.318 L 174.992 24.908 L 171.232 24.908 L 171.232 12.628 L 174.992 12.628 L 174.992 14.938 Z" transform="matrix(1, 0, 0, 1, 0, 0)" style="fill: rgb(255, 255, 255); white-space: pre;"/>
</svg>